<svg width="72" height="72" viewBox="0 0 72 72" fill="none" xmlns="http://www.w3.org/2000/svg">
<path d="M36 71C55.33 71 71 55.33 71 36C71 16.67 55.33 1 36 1C16.67 1 1 16.67 1 36C1 55.33 16.67 71 36 71Z" fill="#FEFEFE" stroke="#2B2A29" stroke-width="0.2"/>
<path fill-rule="evenodd" clip-rule="evenodd" d="M51.3302 20.0981C51.3302 20.0981 51.0084 19.6763 50.8011 19.7907C50.5079 19.948 50.2577 19.9122 49.5283 19.4975C47.8981 18.5751 48.4129 18.9326 48.4129 18.9326L49.5569 19.662C49.5569 19.662 49.893 20.377 50.0789 20.2626C50.272 20.141 50.4436 20.0123 50.6581 19.9909C50.9798 19.9623 51.3302 20.0981 51.3302 20.0981ZM59.2097 23.38C58.4946 23.4444 57.6295 23.38 56.9431 23.3586L56.321 22.808C56.5712 22.9439 56.8287 23.0797 57.0861 23.2156C57.6938 23.2084 58.3016 23.2084 58.9093 23.2013L58.6734 22.7365C58.8092 22.901 59.131 23.1226 59.2669 23.2799C59.2454 23.3157 59.2311 23.3443 59.2097 23.38ZM56.893 25.1533C56.893 25.1533 60.3751 25.7539 60.3251 27.2268C60.2679 28.6926 59.6172 28.5853 58.8521 28.9643C58.0942 29.3433 57.3792 29.2932 57.3792 29.2932L56.893 25.1533ZM52.7602 22.7079C53.1463 22.2217 52.6172 21.7141 51.6448 20.3698C52.0238 19.8693 52.6387 18.711 51.559 17.8601C46.1892 13.6487 42.9788 15.1431 40.0186 15.6293C40.0186 15.6293 38.8389 15.2074 38.2812 14.1635C35.9931 9.86625 43.9441 14.9286 47.6407 12.4189C47.6407 12.4189 48.799 11.6109 49.2209 11.2748C49.657 10.9245 50.4078 9.53019 50.036 8.77228C49.6642 8.01436 48.2914 6.59863 48.2914 6.59863C48.2914 6.59863 50.9584 7.41375 51.9951 8.93673C53.0319 10.4597 52.703 9.31569 52.703 9.31569C52.703 9.31569 53.0319 9.20844 53.3537 9.6446C53.6826 10.0808 53.3537 9.9735 53.3537 9.9735C53.3537 9.9735 53.7398 10.2953 53.6254 10.6814C53.5181 11.0603 53.1892 11.332 53.1892 11.332L53.3036 14.0562L53.5181 14.378C53.5181 14.378 54.3332 13.9418 54.4977 14.4352C54.6622 14.9214 54.8266 14.9786 54.8266 14.9786C54.8266 14.9786 54.4477 13.6201 55.3128 13.8918C56.1851 14.1635 55.8062 14.8714 55.6989 15.3576C55.5845 15.8509 55.5845 16.995 55.5845 16.995L55.8562 17.045C55.8562 17.045 55.5345 17.424 55.8562 17.8101C56.1851 18.189 56.1851 19.0041 56.6213 19.0613C57.0575 19.1114 57.1147 19.3831 57.1147 19.3831C57.1147 19.3831 57.0575 19.0613 57.6581 19.0613C58.2515 19.0613 59.2311 19.3331 59.56 19.4403C59.8889 19.5476 59.8317 19.2759 60.0534 19.9337C60.2679 20.5843 59.939 20.7488 60.2679 21.0205C60.5968 21.2922 59.8889 22.5435 59.8889 22.5435C59.8889 22.5435 59.56 23.4658 59.0166 23.5802C58.4732 23.6875 57.8225 23.5802 57.8225 23.5802L56.8358 23.4158C56.8358 23.4158 56.1565 22.9725 56.1565 22.5363C56.1565 22.1073 56.1351 21.7284 56.1351 21.7284L54.7694 22.329C54.7694 22.329 56.464 23.2084 56.5069 23.6303C56.5498 24.0522 57.3864 32.9398 57.3864 32.9398C57.3864 32.9398 56.6785 33.7549 56.1851 33.9766C55.6989 34.1911 55.37 34.2983 55.37 34.2983L55.6417 36.093C55.6417 36.093 55.2628 36.2575 55.3128 36.9153C55.37 37.5659 55.4272 38.4883 55.4272 38.4883L55.0983 40.3402L54.7694 38.8744L54.4977 36.7508L54.1187 36.1502V34.4056C54.1187 34.4056 53.1392 34.2483 52.7602 33.9194C52.3741 33.5905 52.1596 33.3187 52.1596 33.3187L52.1024 32.1247L52.0881 31.9173C51.9308 32.1819 51.6662 32.4178 51.2301 32.5036C50.0932 32.7181 49.8215 32.8826 49.4354 32.7753C49.0564 32.6681 48.892 32.6109 48.892 32.6109C48.892 32.6109 48.7275 33.3688 47.8052 33.7549C47.0472 34.0767 46.4109 33.9337 45.846 33.4832C45.846 33.4832 44.8664 34.6272 44.4875 34.6773C44.1014 34.7345 43.0146 34.6773 42.3067 34.1339C41.5988 33.5905 40.4048 32.7753 40.4048 32.7753C40.4048 32.7753 38.6673 32.0961 38.0095 31.1451C36.3435 28.7283 37.7163 27.7488 38.8031 26.6477C39.8899 25.5465 39.7469 24.2881 40.6193 23.7947C41.4916 23.3085 41.9277 22.758 42.3639 22.1645C42.8001 21.5639 43.2863 21.1849 43.9369 21.1849C44.5947 21.1849 45.3026 21.4566 46.3894 21.2922C47.4763 21.1277 47.8838 20.7845 49.6856 21.3994C50.2076 21.5782 50.894 22.0501 51.1514 22.3075C51.466 22.6293 50.8082 23.0869 51.5375 23.3228C51.609 23.2585 51.702 23.1941 51.8235 23.1584C52.0738 23.0869 52.6744 22.8152 52.7602 22.7079ZM53.6039 16.5016C53.6039 16.5016 53.7398 16.8019 53.8184 17.2881C53.8971 17.7815 53.847 17.9173 53.847 17.9173L53.5181 17.5884L53.6039 16.5016ZM54.8767 15.4148L55.0983 16.9664L54.8552 16.8591L54.6908 15.9296L54.4477 15.901L54.798 15.522L54.8767 15.4148ZM39.5753 32.9112C39.5753 32.9112 38.3598 33.4331 37.0799 32.4464C34.5416 30.4873 35.464 27.3841 37.4088 25.8111C38.0381 25.2963 40.8838 22.6293 41.656 22.7079C41.656 22.7079 40.0186 23.7947 39.5825 24.5026C39.1535 25.2105 39.1535 26.1328 38.5529 26.4618C37.9523 26.7907 37.2444 27.713 37.0799 28.092C36.7081 28.9715 36.751 30.6803 37.845 31.6313C38.4385 32.1461 39.5753 32.9112 39.5753 32.9112Z" fill="#2B2A29"/>
<path fill-rule="evenodd" clip-rule="evenodd" d="M39.5679 27.0123C39.5679 27.0123 39.0245 28.0991 38.3738 28.0991C37.7232 28.0991 38.7027 29.6221 39.8968 30.3871C41.098 31.1451 43.9795 33.1614 44.3084 33.4331C44.6302 33.7048 43.9509 34.6057 44.2512 34.3054L45.1236 33.4331C45.1236 33.4331 41.477 30.9878 40.7119 29.6793C39.954 28.3708 39.5679 27.0123 39.5679 27.0123ZM50.3503 24.4525C49.6925 25.2176 49.3922 25.5179 49.7783 25.7896C50.1573 26.0613 50.429 25.8396 50.8365 25.5679C51.2441 25.2962 51.8733 25.2676 51.7089 24.9459C51.5444 24.617 51.3513 24.238 50.9438 24.2881C50.5362 24.3453 50.3503 24.4525 50.3503 24.4525ZM56.2421 23.6946C55.9131 23.7089 55.6271 24.1236 54.1042 24.0736L54.8978 32.618C54.8978 32.618 54.9193 33.5976 55.67 33.5404C56.4208 33.4903 57.1787 32.7252 57.1787 32.7252L56.2421 23.6946ZM59.1951 26.7906C58.4014 26.4403 57.8294 26.2758 57.9652 26.6047C58.1011 26.9336 58.5658 27.477 59.002 27.477C59.4382 27.477 59.6241 27.4198 59.6527 27.2554C59.6813 27.0909 59.1951 26.7906 59.1951 26.7906ZM43.7078 22.6006C44.5802 23.6946 47.4116 26.1972 47.955 27.0695C48.4984 27.9346 49.9142 31.095 49.9142 31.095L50.6721 30.6588C50.6721 30.6588 47.955 26.4117 47.5189 24.8887C47.0827 23.3657 47.4116 22.0572 46.432 22.3861C45.4453 22.715 45.667 22.9295 44.7947 22.3861C43.9223 21.8427 43.7078 22.6006 43.7078 22.6006ZM42.7283 23.3657C42.7283 23.3657 42.2921 24.238 41.527 24.4525C40.7691 24.6742 40.4402 25.7038 41.8559 27.0695C42.5352 27.7201 43.4004 28.6425 43.9509 29.7794C44.7518 31.4382 46.4606 34.7344 48.1695 32.9469C48.1695 32.9469 47.7334 33.1614 46.9755 32.8325C46.6751 32.7109 45.81 31.1522 44.7232 29.8008C43.0286 27.6915 41.0408 25.4535 41.6414 25.0531C42.621 24.4025 42.7283 23.3657 42.7283 23.3657Z" fill="#898989"/>
<path fill-rule="evenodd" clip-rule="evenodd" d="M63.857 22.6866C63.857 22.6866 67.7753 32.8112 64.6721 41.6846C61.8049 49.8858 59.3524 52.7387 56.8927 52.3455C57.7651 51.945 58.7589 51.0513 57.9939 51.1442C57.4219 51.2157 56.907 51.2729 56.6711 50.9941C56.8641 50.944 57.0858 50.9083 57.3289 50.8797C59.9244 50.6008 64.8366 42.5497 65.1655 36.0789C65.4872 29.6008 63.857 22.6866 63.857 22.6866ZM12.4331 35.1851C12.8621 34.9849 13.2983 34.7918 13.7845 34.5845C15.5649 33.8337 14.5996 32.9542 15.8366 32.3179L15.9581 33.8051C16.8161 33.4905 18.4178 33.326 18.8039 32.704C19.3473 31.8174 19.1328 31.1667 20.1982 30.1085C20.5128 31.2167 20.2125 31.7101 20.1696 32.6754L20.4627 32.7326C20.5056 32.7326 20.6987 32.754 20.7559 32.754L22.8795 32.5824C23.8018 31.3026 23.6731 29.322 25.0531 28.1207C25.5536 29.4936 24.5598 31.4527 24.667 32.611C25.5822 32.8684 28.6711 31.9675 32.2819 34.3628C33.19 34.9634 32.9111 36.7152 35.6067 36.1861C35.4995 36.3506 33.8621 34.942 34.5271 34.3199C34.6343 34.3199 34.7559 34.3342 34.8917 34.3414C35.0276 34.6774 34.9775 35.0921 35.6282 35.5283C36.8652 36.3649 35.7783 34.9062 36.0214 34.9348C37.1726 35.0492 38.4954 36.179 39.3534 37.2443C40.19 38.2954 42.0133 36.8368 42.2921 37.1871C42.571 37.5446 41.8631 38.9389 42.3493 38.5528C43.8652 37.3158 46.2247 37.6447 46.239 37.1585C46.3177 34.2127 45.7743 34.7775 44.0868 35.228C42.7783 35.5855 42.5495 35.2423 41.8131 35.0707C41.763 34.1483 40.7405 33.6764 39.7038 33.6264C37.9734 33.5334 34.7559 33.2617 34.4842 29.322C34.1195 28.0063 31.2809 27.4772 29.9367 28.5926C31.3095 25.4466 25.1604 24.6815 22 24.753C20.4627 24.7888 19.4545 26.9267 18.2605 27.8347C14.4995 30.7091 10.8601 34.3557 8.27171 36.8725C7.58529 37.5303 7.89275 37.6733 9.98774 37.0084C10.3023 36.9083 11.954 35.6856 12.4331 35.1851ZM36.6006 23.373C35.7998 22.9583 33.8264 22.1933 32.8611 22.3792C33.7691 22.7867 35.0061 22.9154 35.8141 23.7734L34.8774 24.5528C33.8264 24.3883 30.7089 22.4936 28.3636 22.9583C30.0153 23.2801 31.8243 23.5804 34.1553 25.2678L33.6619 26.0829C30.3442 24.56 27.2482 23.3516 23.6946 23.6233C22.4648 23.7234 21.764 23.9522 20.7773 24.231C22.858 24.2525 23.3442 23.9379 26.0112 24.417C27.2768 24.6458 29.3289 25.2464 30.2799 26.2545C30.7589 26.7622 30.6374 26.9481 30.6302 27.5559C31.903 26.7765 33.1256 27.2198 34.62 28.3209C34.3984 26.6907 34.3769 25.8255 36.3218 24.3669C37.237 23.6805 39.096 22.6652 39.9326 22.4578C38.3738 22.3863 37.43 23.0513 36.6006 23.373ZM25.4392 13.3342C25.8825 13.3485 26.4974 13.0625 26.9908 12.9982C28.3064 12.8337 30.2084 13.1984 31.0735 14.0206C30.7232 14.0063 30.8447 14.0135 30.5015 13.9134C28.2564 13.2913 25.8325 13.6989 24.0592 15.0431C23.287 15.6294 23.0511 16.1013 22.5077 16.6233C22.0644 15.3506 25.2891 11.5967 25.6823 11.2178C21.3493 14.7785 12.8979 26.0472 12.7978 29.1075C13.9561 27.5702 15.7436 26.0043 18.6823 23.7734C18.6966 23.1728 20.0552 20.2913 20.5199 19.8766C20.2053 20.7704 19.6476 22.3434 19.7906 22.8153L22.0429 21.1708C21.9213 20.4915 22.1931 19.3546 22.8866 18.2106C22.7222 19.1187 22.1502 19.8623 22.7651 20.849L24.3166 19.5906C24.288 19.4118 23.7089 18.039 25.5036 16.4874C24.7314 17.9818 24.8029 18.2893 25.046 19.2259C25.5536 18.5967 29.1573 17.2167 30.2155 17.8317C31.2809 18.4537 25.3892 21.2852 25.8039 21.7356C26.0327 21.9859 32.1675 17.4384 38.4453 16.5017C36.6864 16.2658 33.7834 15.2791 32.4535 14.4997C33.1757 14.2637 33.2901 14.4711 33.9837 14.3996C32.7038 13.084 30.4729 11.6968 28.5209 11.9042C31.1093 7.74279 42.1706 3.98181 48.3769 8.55076C44.6803 3.33114 34.5414 5.98385 32.2319 7.62124C30.7518 8.47926 29.5148 9.34442 28.3064 10.3311C27.0051 11.3965 26.3401 12.276 25.4392 13.3342ZM6.84167 37.7591C7.9142 23.945 14.2921 17.3097 16.8519 14.421C23.8948 6.47721 32.3105 3.96751 38.953 3.92461C38.6742 3.13809 23.8304 3.4098 14.9857 12.7836C9.27988 18.8327 5.31869 27.9491 6.84167 37.7591Z" fill="#244082"/>
<path d="M17.3656 60.0819V59.2382L16.7507 59.8602V60.0104C16.7507 60.1319 16.7293 60.2535 16.5577 60.2535C16.3574 60.2535 16.3717 60.1319 16.3717 60.0104V58.137C16.3717 58.0226 16.4003 57.8939 16.5648 57.8939C16.7293 57.8939 16.7507 58.0226 16.7507 58.137V58.8449L17.3656 58.2228V58.0441C17.3656 57.7795 17.1511 57.5579 16.8794 57.5579H16.243C15.9785 57.5579 15.7568 57.7795 15.7568 58.0441V60.0962C15.7568 60.3679 15.9785 60.5895 16.243 60.5895H16.908C17.1726 60.5895 17.3656 60.3464 17.3656 60.0819ZM20.5331 60.1176V58.1227C20.5331 57.8367 20.3401 57.5579 20.0541 57.5579H17.5587L17.9448 57.944V60.7468L18.5597 60.1176V57.944H18.7599C18.8529 57.944 18.9387 58.0226 18.9387 58.1156V60.7468L19.5536 60.1176V57.944H19.7323C19.8324 57.944 19.9111 58.0369 19.9111 58.137V60.7468L20.5331 60.1176ZM23.0714 60.5895L22.6853 60.2106V57.4077L22.0704 58.0226V60.2106H21.8559C21.7558 60.2106 21.6915 60.0962 21.6915 59.9961V57.4077L21.0766 58.0226V60.0676C21.0766 60.3393 21.2696 60.5895 21.5485 60.5895H22.0704V61.233C22.0704 61.326 21.9918 61.3975 21.8988 61.3975H21.0766L21.4555 61.7765H22.2635C22.5209 61.7765 22.6853 61.5262 22.6853 61.2688V60.5895H23.0714ZM25.3309 60.5895L24.9519 60.2106V57.944L25.3309 57.5579H23.8008C23.5291 57.5579 23.3432 57.8367 23.3432 58.1084V60.1105C23.3432 60.375 23.5577 60.5895 23.8222 60.5895H24.3513V61.2187C24.3513 61.326 24.2584 61.4118 24.144 61.4118H23.3145L23.7078 61.7765H24.5372C24.8089 61.7765 24.9662 61.4976 24.9662 61.2259V60.5895H25.3309ZM24.3299 60.2106H24.1511C24.0439 60.2106 23.9581 60.0962 23.9581 59.9889V58.137C23.9581 58.0298 24.0439 57.944 24.1511 57.944H24.3299V60.2106ZM27.5975 60.5895L27.2185 60.2106V57.4077L26.5965 58.0226V60.2535H26.4106C26.2962 60.2535 26.2247 60.1391 26.2247 60.0247V57.4077L25.6097 58.0226V60.2106C25.6097 60.4179 25.7957 60.5895 26.003 60.5895H27.5975ZM29.8641 58.7948H29.478V57.944L29.8641 57.5579H29.478H28.334C28.0837 57.5579 27.8692 57.7724 27.8692 58.0226V58.4588C27.8692 58.7233 27.9908 58.9092 28.2124 58.9736C27.9836 59.0165 27.8692 59.1881 27.8692 59.4384V60.7468L28.4913 60.1176V59.3597C28.4913 59.2668 28.5628 59.181 28.6629 59.181H28.8631V60.7468L29.478 60.1176V59.181L29.8641 58.7948ZM28.8631 58.7948H28.6629C28.5628 58.7948 28.4913 58.709 28.4913 58.6161V58.1227C28.4913 58.0298 28.5628 57.944 28.6629 57.944H28.8631V58.7948ZM35.1767 60.1176V58.1227C35.1767 57.8367 34.9836 57.5579 34.6976 57.5579H32.2093L32.5883 57.944V60.7468L33.2032 60.1176V57.944H33.4034C33.4964 57.944 33.5822 58.0226 33.5822 58.1156V60.7468L34.1971 60.1176V57.944H34.3758C34.4759 57.944 34.5546 58.0369 34.5546 58.137V60.7468L35.1767 60.1176ZM37.715 59.2596L37.3289 58.8735V58.0441C37.3289 57.7938 37.1501 57.5579 36.8998 57.5579H36.1991C35.9346 57.5579 35.7201 57.7795 35.7201 58.0441V58.8377L36.335 58.2228V58.1513C36.335 58.0298 36.3278 57.8939 36.528 57.8939C36.7068 57.8939 36.7139 58.0298 36.7139 58.1513V58.8735H36.1991C35.9417 58.8735 35.7201 59.0666 35.7201 59.324V60.1105C35.7201 60.375 35.9203 60.5895 36.192 60.5895H37.715L37.3289 60.2106V59.2596H37.715ZM36.7139 60.2106H36.4923C36.3993 60.2106 36.335 60.1248 36.335 60.0318V59.4598C36.335 59.3597 36.4136 59.2596 36.5137 59.2596H36.7139V60.2106ZM40.6036 60.1176V58.1227C40.6036 57.8367 40.4177 57.5579 40.1246 57.5579H37.6363L38.0153 57.944V60.7468L38.6302 60.1176V57.944H38.8304C38.9233 57.944 39.0091 58.0226 39.0091 58.1156V60.7468L39.6241 60.1176V57.944H39.8028C39.9101 57.944 39.9816 58.0369 39.9816 58.137V60.7468L40.6036 60.1176ZM43.1419 60.5895L42.7558 60.2106V57.4077L42.1409 58.0226V60.2106H41.9264C41.8263 60.2106 41.7691 60.0962 41.7691 59.9961V57.4077L41.147 58.0226V60.0676C41.147 60.3393 41.3472 60.5895 41.6189 60.5895H42.1409V61.233C42.1409 61.326 42.0623 61.3975 41.9693 61.3975H41.147L41.5331 61.7765H42.334C42.5914 61.7765 42.7558 61.5262 42.7558 61.2688V60.5895H43.1419ZM45.4085 60.5895L45.0224 60.2106V57.4077L44.4075 58.0226V60.2535H44.2145C44.1 60.2535 44.0285 60.1391 44.0285 60.0247V57.4077L43.4136 58.0226V60.2106C43.4136 60.4179 43.5995 60.5895 43.814 60.5895H45.4085ZM47.3963 60.1319V58.0798C47.3963 57.8081 47.2032 57.5579 46.9387 57.5579H45.4085L45.7875 57.944V60.2106L45.4085 60.5895H45.7875V61.9338L46.4024 61.326V60.5895H46.9387C47.1889 60.5895 47.3963 60.3822 47.3963 60.1319ZM46.7814 60.0318C46.7814 60.1248 46.7027 60.2106 46.6098 60.2106H46.4024V57.944H46.6098C46.7027 57.944 46.7814 58.0298 46.7814 58.1227V60.0318ZM49.5556 60.0247V58.1799C49.5556 57.8725 49.3912 57.5579 49.0837 57.5579H48.3901C48.0898 57.5579 47.9468 57.8868 47.9468 58.1871V60.0247C47.9468 60.2964 48.097 60.5895 48.3758 60.5895H49.1052C49.3912 60.5895 49.5556 60.3035 49.5556 60.0247ZM48.9336 60.0104C48.9336 60.1319 48.905 60.2535 48.7477 60.2535C48.5903 60.2535 48.5617 60.1319 48.5617 60.0104V58.1656C48.5617 58.0369 48.5832 57.8939 48.7477 57.8939C48.9121 57.8939 48.9336 58.0369 48.9336 58.1656V60.0104ZM51.8151 60.0747V59.3597C51.8151 59.1524 51.6721 58.9736 51.5076 58.9378C51.6792 58.9021 51.8151 58.7519 51.8151 58.4802V58.0226C51.8151 57.7724 51.6077 57.5579 51.3575 57.5579H49.8273L50.2063 57.944V58.7948H49.8273L50.2063 59.181V60.2106L49.8273 60.5895H51.3575C51.622 60.5895 51.8151 60.3393 51.8151 60.0747ZM51.2002 58.6161C51.2002 58.709 51.1215 58.7948 51.0285 58.7948H50.8283V57.944H51.0285C51.1215 57.944 51.2002 58.0298 51.2002 58.1227V58.6161ZM51.2002 60.0318C51.2002 60.1248 51.1215 60.2106 51.0285 60.2106H50.8283V59.181H51.0285C51.1215 59.181 51.2002 59.2668 51.2002 59.3597V60.0318ZM54.0817 60.1176V59.3669C54.0459 59.0308 53.7671 58.9307 53.7671 58.9307C53.7671 58.9307 54.0817 58.8377 54.0817 58.5017V57.4077L53.4668 58.0226V58.5875C53.4668 58.6947 53.3953 58.7948 53.288 58.7948H53.0878V57.4077L52.4729 58.0655V58.7948H52.0939L52.4729 59.181V60.7468L53.0878 60.1176V59.181H53.2952C53.3881 59.181 53.4668 59.2668 53.4668 59.3597V60.7468L54.0817 60.1176ZM56.62 60.5895L56.241 60.2106V57.4077L55.6189 58.0226V60.2535H55.433C55.3186 60.2535 55.2471 60.1391 55.2471 60.0247V57.4077L54.6322 58.0226V60.2106C54.6322 60.4179 54.8181 60.5895 55.0255 60.5895H56.62Z" fill="#2B2A29"/>
<path fill-rule="evenodd" clip-rule="evenodd" d="M20.0483 35.6708C18.5325 35.3777 14.0922 36.9007 12.8052 37.1867C11.5253 37.4798 9.65197 38.4737 12.9267 38.3021C16.1944 38.1233 21.6213 37.6014 24.4242 37.4798C27.2271 37.3654 28.6285 37.1295 27.985 37.4798C27.3486 37.8302 19.462 43.8434 17.1882 45.4808C14.9073 47.1182 9.94513 51.4369 9.36597 52.252C8.77966 53.0671 7.08507 55.4624 9.65197 54.5329C12.226 53.5962 15.9584 52.4308 18.3537 52.4308C20.749 52.4308 22.5008 52.252 23.6091 52.3664C24.7174 52.488 26.176 52.1948 24.6602 51.9017C23.1443 51.6085 19.9339 51.3225 17.2454 51.4941C14.557 51.6728 10.4742 53.4175 12.0473 52.0804C13.6275 50.7362 20.4559 44.6085 22.5008 43.1427C24.5458 41.6841 29.4794 37.537 30.0585 37.3082C30.6162 37.251 30.7306 37.3654 31.1954 37.3082C31.6673 37.251 32.5682 36.5789 32.0463 36.5789C31.5172 36.5789 31.2883 36.4859 30.9952 36.4859C31.2311 36.1356 32.368 35.2061 31.6101 35.2633C30.845 35.3205 29.9727 35.9926 29.508 36.4287C28.6571 36.4287 24.7174 36.6647 21.7429 36.6075C18.7613 36.5503 18.2393 36.8363 19.6407 36.3715C21.0422 35.9068 20.0483 35.6708 20.0483 35.6708ZM54.4906 45.7168C55.1341 45.8026 56.0708 45.7168 57.0647 45.1877C58.0585 44.6657 59.5744 43.3572 58.6949 43.8434C57.8226 44.3368 56.4498 44.8159 55.4559 44.8087C54.462 44.8016 54.3977 43.7433 54.6408 42.9711C54.9482 41.9916 54.4048 42.3419 54.1117 43.2714C53.7541 44.394 53.8471 45.6238 54.4906 45.7168ZM44.1586 49.5064C45.0596 49.2275 50.3364 47.2326 48.0984 45.4808C46.9615 44.5871 46.0105 44.8659 44.1586 46.8537C42.3139 48.8414 41.9993 50.443 42.3496 51.5513C42.7 52.6596 43.3435 53.8894 46.0892 52.4308C48.8277 50.9721 50.0003 48.9272 49.7072 49.6851C49.414 50.443 48.8277 53.0671 50.2291 52.8955C51.6305 52.7168 53.3823 51.3225 54.319 50.3858C55.2557 49.4492 55.5417 48.6912 55.2557 50.2714C54.9625 51.8445 55.4702 52.6524 56.364 52.5166C57.2506 52.3807 58.9309 51.0365 57.9942 51.1437C57.0647 51.251 56.3067 51.3511 56.5928 50.0069C56.8859 48.6626 57.0075 46.9681 56.0136 47.726C55.0197 48.4839 53.9114 50.3572 52.4814 51.2581C51.0514 52.1662 50.1719 52.3092 51.223 50.0927C52.2741 47.8761 53.032 47.2898 52.6244 46.7035C52.2169 46.1243 51.7521 45.8884 51.4017 46.5891C51.0514 47.2898 50.5223 48.3409 47.7766 50.3858C45.0381 52.4308 44.3374 52.5738 43.8083 51.9303C43.2863 51.2867 44.1586 49.5064 44.1586 49.5064ZM45.3885 47.4042C46.2036 46.7035 46.0248 46.4175 46.7899 46.2387C47.5478 46.0671 48.3629 46.4461 47.4906 46.9109C46.6111 47.3756 45.4457 48.3981 45.0953 48.2265C44.7449 48.0477 45.3885 47.4042 45.3885 47.4042ZM32.7184 47.4972C33.1259 46.6749 33.4477 45.4236 32.3108 45.3378C31.1668 45.2449 30.0871 45.6524 27.8706 48.3409C25.654 51.0293 25.8256 53.539 26.5549 53.6248C27.2843 53.7106 29.5652 51.3797 30.2659 50.679C30.9666 49.9783 31.8389 49.0988 31.7245 50.6218C31.6101 52.1376 32.0177 52.9527 33.1831 52.0232C34.3486 51.0865 34.9349 50.5002 34.8205 51.0865C34.699 51.6728 34.8205 52.6882 36.1576 52.6882C37.5018 52.6882 38.6101 51.8731 39.8399 50.7076C41.0626 49.535 41.6489 48.4553 41.9993 48.3409C42.3496 48.2265 42.8144 47.8189 42.3496 47.7546C41.8849 47.6974 42.464 46.4175 41.9993 44.7801C41.5345 43.1427 41.0626 41.0406 41.7633 40.5186C42.464 39.9895 43.6367 39.5248 45.2097 39.5248C46.7899 39.5248 47.3119 39.2316 46.9043 39.9895C46.4967 40.7546 46.5539 40.869 47.5478 40.1111C48.5417 39.3532 49.3568 38.1805 47.2547 38.2377C45.1525 38.3021 43.2291 38.6524 41.7633 39.4104C40.3047 40.1683 40.5979 42.3276 40.8338 42.9711C41.0626 43.6146 41.5345 45.0733 41.5345 45.5952C41.5345 46.1243 41.0626 45.8598 40.5693 45.917C40.0759 45.9742 39.4038 46.7393 39.3466 46.2673C39.2822 45.8026 39.1964 45.6524 38.6101 45.8312C38.0309 46.0028 35.9288 47.9905 34.9349 49.7423C34.6704 50.2142 32.0606 53.0886 32.8328 50.3858C33.2975 48.7484 33.5049 48.0477 33.0401 48.1693C32.5682 48.2837 32.0749 48.4839 32.3394 48.0763C32.5968 47.6688 32.7184 47.4972 32.7184 47.4972ZM36.4508 50.2071C35.8144 51.4941 35.8716 51.7944 36.4508 52.0804C37.3731 52.5237 40.2832 49.9354 41.0269 48.5268C41.27 48.0692 40.9983 48.0835 41.0269 47.6187C41.0698 47.0396 41.3415 46.6749 40.6551 46.7035C39.3609 46.7679 36.987 49.1488 36.4508 50.2071ZM27.2843 51.3225C26.9983 52.0804 26.2975 53.5962 28.3997 51.5513C30.4947 49.5064 30.9666 49.2204 30.9666 49.2204C30.9666 49.2204 30.845 48.5196 31.5458 47.7546C32.2465 46.9967 32.6397 45.8455 32.1893 46.0671C30.8093 46.7536 27.6775 50.3072 27.2843 51.3225Z" fill="#2B2A29"/>
</svg>
