<svg width="11" height="9" viewBox="0 0 11 9" fill="none" xmlns="http://www.w3.org/2000/svg">
<path fill-rule="evenodd" clip-rule="evenodd" d="M0 8.5C0 8.3674 0.05268 8.2402 0.14645 8.1464C0.24021 8.0527 0.36739 8 0.5 8H10.5C10.6326 8 10.7598 8.0527 10.8536 8.1464C10.9473 8.2402 11 8.3674 11 8.5C11 8.6326 10.9473 8.7598 10.8536 8.8536C10.7598 8.9473 10.6326 9 10.5 9H0.5C0.36739 9 0.24021 8.9473 0.14645 8.8536C0.05268 8.7598 0 8.6326 0 8.5ZM0 4.5C0 4.36739 0.05268 4.24021 0.14645 4.14645C0.24021 4.05268 0.36739 4 0.5 4H10.5C10.6326 4 10.7598 4.05268 10.8536 4.14645C10.9473 4.24021 11 4.36739 11 4.5C11 4.63261 10.9473 4.75979 10.8536 4.85355C10.7598 4.94732 10.6326 5 10.5 5H0.5C0.36739 5 0.24021 4.94732 0.14645 4.85355C0.05268 4.75979 0 4.63261 0 4.5ZM0 0.5C0 0.36739 0.05268 0.24021 0.14645 0.14645C0.24021 0.05268 0.36739 0 0.5 0H10.5C10.6326 0 10.7598 0.05268 10.8536 0.14645C10.9473 0.24021 11 0.36739 11 0.5C11 0.63261 10.9473 0.75979 10.8536 0.85355C10.7598 0.94732 10.6326 1 10.5 1H0.5C0.36739 1 0.24021 0.94732 0.14645 0.85355C0.05268 0.75979 0 0.63261 0 0.5Z" fill="#3F5791"/>
</svg>
