<svg width="121" height="121" viewBox="0 0 121 121" fill="none" xmlns="http://www.w3.org/2000/svg">
<path d="M60.4842 113.483L59.0855 115.802L57.8199 115.806L59.8839 112.664L57.7348 109.466L58.9887 109.462L60.4612 111.83L61.9184 109.452L63.1781 109.448L61.0499 112.66L63.1343 115.788L61.8804 115.792L60.4842 113.483Z" fill="#03009B"/>
<path d="M49.5259 109.899L47.0695 114.226L45.9361 113.979L49.9876 107.373C50.5981 106.426 51.3231 106.045 52.1627 106.228L52.3593 106.289L52.738 106.45L52.5505 107.308L52.2693 107.223C51.9106 107.145 51.6161 107.156 51.386 107.258C51.1521 107.359 50.9281 107.588 50.7142 107.945L50.342 108.523L51.214 115.131L50.0577 114.879L49.5259 109.899Z" fill="#03009B"/>
<path d="M41.2398 106.703L40.7 106.955C40.0813 107.263 39.5062 107.895 38.9748 108.853L37.7771 111.085L34.1053 109.297L36.4932 104.392L35.761 104.036L36.9639 101.565L37.9385 102.04L37.1229 103.715L41.1003 105.651L41.916 103.976L42.8906 104.451L41.6823 106.919L41.2398 106.703ZM40.0861 106.142L37.4678 104.867L35.5185 108.871L37.2728 109.725L37.9925 108.394C38.6045 107.289 39.3024 106.538 40.0861 106.142Z" fill="#03009B"/>
<path d="M28.7053 102.233C28.3047 102.708 27.8518 103.056 27.3467 103.279C26.8387 103.5 26.3321 103.573 25.8269 103.499C25.3187 103.423 24.8512 103.205 24.4244 102.844C23.7647 102.287 23.4247 101.609 23.4043 100.81C23.3809 100.008 23.6892 99.228 24.3292 98.4699L24.3784 98.4117C24.7765 97.9401 25.2254 97.5931 25.7249 97.3707C26.219 97.1488 26.7229 97.0757 27.2365 97.1515C27.7472 97.2248 28.2205 97.4454 28.6563 97.8133C29.3129 98.3676 29.653 99.0457 29.6763 99.8476C29.6968 100.647 29.3895 101.423 28.7545 102.175L28.7053 102.233ZM27.9557 101.432C28.4093 100.894 28.6495 100.358 28.6764 99.824C28.7004 99.287 28.5034 98.8421 28.0855 98.4893C27.6647 98.134 27.1918 98.016 26.6668 98.1352C26.1394 98.2573 25.625 98.6154 25.1235 99.2094C24.675 99.7407 24.439 100.278 24.4155 100.82C24.3866 101.363 24.581 101.811 24.9989 102.164C25.4078 102.509 25.875 102.625 26.4004 102.511C26.9257 102.397 27.4442 102.038 27.9557 101.432Z" fill="#03009B"/>
<path d="M16.9369 88.9482L17.3681 89.5761L19.6382 88.0169L20.2519 88.9105L17.9818 90.4696L18.4131 91.0975L21.6883 91.0018L22.4645 92.132L18.476 92.1205L17.1158 95.5426L16.3727 94.4607L17.611 91.627L17.1897 91.0136L15.0259 92.4998L14.4122 91.6062L16.576 90.1201L16.158 89.5115L13.0621 89.6404L12.319 88.5585L16.0094 88.5189L17.4256 84.7954L18.2018 85.9256L16.9369 88.9482Z" fill="#03009B"/>
<path d="M13.9039 76.3926C14.1856 77.2045 14.1491 77.9573 13.7944 78.651C13.436 79.3459 12.8102 79.8483 11.9171 80.1582L11.7289 80.2235C11.1348 80.4296 10.5661 80.5008 10.023 80.437C9.47497 80.3708 8.9995 80.1802 8.59663 79.8652C8.18879 79.5477 7.90228 79.151 7.7371 78.6749C7.46693 77.8962 7.51342 77.202 7.87658 76.5923C8.23974 75.9825 8.89923 75.5118 9.85505 75.1802L10.2813 75.0323L11.6891 79.0899C12.2745 78.8703 12.6929 78.5328 12.9442 78.0776C13.1907 77.62 13.2255 77.1366 13.0488 76.6273C12.9233 76.2656 12.7433 75.9849 12.5086 75.7852C12.2739 75.5855 12.0021 75.4337 11.6932 75.33L11.9633 74.5355C12.9088 74.7698 13.5556 75.3888 13.9039 76.3926ZM8.57852 78.383C8.72193 78.7963 8.9936 79.0907 9.39353 79.2662C9.78977 79.4429 10.2707 79.4704 10.8362 79.3486L9.7952 76.3483L9.7177 76.3752C9.20759 76.5853 8.85399 76.8651 8.6569 77.2146C8.45612 77.5654 8.42999 77.9549 8.57852 78.383Z" fill="#03009B"/>
<path d="M10.5334 65.1767C10.4964 64.7918 10.3474 64.4666 10.0864 64.2013C9.82546 63.936 9.51851 63.8047 9.16557 63.8072L9.06741 62.7865C9.4309 62.7712 9.78698 62.8625 10.1357 63.0605C10.4843 63.2585 10.7744 63.5407 11.0058 63.9069C11.2369 64.2693 11.373 64.6643 11.4141 65.092C11.4967 65.9513 11.2768 66.6632 10.7542 67.2275C10.2273 67.7883 9.46618 68.1166 8.47077 68.2123L8.28996 68.2297C7.67561 68.2888 7.11846 68.2286 6.61851 68.049C6.11856 67.8695 5.71619 67.5825 5.4114 67.188C5.10624 66.7896 4.92598 66.3026 4.87064 65.7272C4.80259 65.0195 4.95804 64.412 5.337 63.9046C5.71558 63.3934 6.24166 63.0897 6.91523 62.9935L7.01339 64.0142C6.60811 64.0845 6.28867 64.2722 6.05507 64.5772C5.81722 64.8787 5.71792 65.2336 5.75718 65.6419C5.8099 66.1902 6.04915 66.5969 6.47492 66.862C6.89644 67.1236 7.48047 67.2186 8.22703 67.1468L8.43116 67.1271C9.15828 67.0572 9.7038 66.8537 10.0677 66.5165C10.4317 66.1793 10.5869 65.7327 10.5334 65.1767Z" fill="#03009B"/>
<path d="M6.40978 50.5376L6.1292 52.646L11.5424 53.3664L11.3994 54.4409L5.9862 53.7205L5.71103 55.7882L4.8398 55.6722L5.53856 50.4216L6.40978 50.5376Z" fill="#03009B"/>
<path d="M13.3108 45.3179L7.37848 43.0817L8.25064 40.7679C8.54825 39.9784 8.91517 39.4258 9.35142 39.1102C9.78538 38.7895 10.2692 38.7298 10.8029 38.9309C11.077 39.0343 11.2945 39.2102 11.4555 39.4587C11.6128 39.7059 11.6893 40.0123 11.685 40.3781C11.9041 40.0516 12.1768 39.8266 12.503 39.7033C12.8305 39.5763 13.1643 39.5769 13.5042 39.705C14.0488 39.9103 14.3898 40.2684 14.527 40.7793C14.6655 41.2866 14.597 41.9057 14.3215 42.6368L13.3108 45.3179ZM11.0889 43.3218L12.8763 43.9956L13.5087 42.3179C13.6685 41.8939 13.7091 41.5481 13.6305 41.2805C13.5532 41.0092 13.372 40.8199 13.0869 40.7124C12.4948 40.4892 12.0347 40.8126 11.7068 41.6825L11.0889 43.3218ZM10.2774 43.016L10.7714 41.7056C11.1296 40.7552 11.0309 40.1753 10.4753 39.9659C9.91975 39.7565 9.46334 40.0979 9.10612 40.9902L8.58324 42.3773L10.2774 43.016Z" fill="#03009B"/>
<path d="M19.6817 32.6415C19.1975 33.3515 18.5711 33.7707 17.8027 33.899C17.031 34.0252 16.2547 33.822 15.4737 33.2894L15.3092 33.1771C14.7896 32.8227 14.3936 32.4085 14.1213 31.9343C13.8479 31.4547 13.7177 30.9592 13.7307 30.448C13.7427 29.9313 13.8906 29.4648 14.1745 29.0485C14.639 28.3676 15.2242 27.9913 15.9303 27.9197C16.6364 27.8481 17.4073 28.0973 18.2432 28.6673L18.6159 28.9216L16.1959 32.4698C16.721 32.809 17.2413 32.944 17.7566 32.8747C18.271 32.8 18.68 32.5399 18.9838 32.0946C19.1995 31.7783 19.3176 31.4664 19.3382 31.159C19.3588 30.8515 19.3187 30.5428 19.218 30.233L20.017 29.9765C20.3922 30.8754 20.2804 31.7637 19.6817 32.6415ZM14.9103 29.5503C14.6638 29.9118 14.5892 30.3054 14.6866 30.7311C14.7807 31.1547 15.0451 31.5572 15.4799 31.9389L17.2693 29.3152L17.2016 29.269C16.7289 28.9845 16.2935 28.8672 15.8954 28.9172C15.494 28.9649 15.1656 29.176 14.9103 29.5503Z" fill="#03009B"/>
<path d="M29.1539 22.0559L28.3491 22.7821L26.5356 20.7723L24.3736 22.7233L26.1871 24.733L25.378 25.4631L21.1307 20.7563L21.9398 20.0262L23.7809 22.0664L25.9429 20.1155L24.1018 18.0753L24.9066 17.3491L29.1539 22.0559Z" fill="#03009B"/>
<path d="M39.0415 15.7974L38.0882 16.3133L36.7998 13.9325L34.2386 15.3185L35.527 17.6993L34.5685 18.218L31.5511 12.6422L32.5096 12.1235L33.8175 14.5404L36.3787 13.1544L35.0708 10.7375L36.0241 10.2216L39.0415 15.7974Z" fill="#03009B"/>
<path d="M48.9023 12.3703C48.8099 12.2654 48.704 12.0631 48.5846 11.7633C48.2308 12.398 47.7159 12.8045 47.0399 12.9828C46.4355 13.1423 45.894 13.1033 45.4153 12.866C44.9394 12.624 44.6322 12.2404 44.4936 11.7154C44.3253 11.0771 44.4365 10.5185 44.8272 10.0397C45.2208 9.55615 45.8576 9.19828 46.7377 8.96611L47.7575 8.69708L47.6304 8.21551C47.5338 7.84913 47.3475 7.5872 47.0716 7.4297C46.7948 7.26843 46.443 7.24409 46.0161 7.35669C45.6422 7.45533 45.3536 7.63246 45.1504 7.88807C44.9472 8.14369 44.8809 8.40558 44.9517 8.67374L43.8979 8.95175C43.8172 8.64581 43.8471 8.3228 43.9876 7.98273C44.131 7.63788 44.3658 7.33354 44.6921 7.0697C45.0222 6.80487 45.4101 6.61366 45.8558 6.49608C46.5621 6.30975 47.1622 6.34129 47.6563 6.59071C48.1493 6.83635 48.4851 7.2669 48.6636 7.88234L49.4079 10.7038C49.5564 11.2666 49.7462 11.6952 49.9775 11.9897L50.0014 12.0804L48.9023 12.3703ZM46.9522 12.0303C47.2808 11.9437 47.57 11.7765 47.8197 11.5288C48.0695 11.2811 48.2246 11.0038 48.2851 10.697L47.9533 9.43926L47.1318 9.65599C45.8476 9.99477 45.3046 10.54 45.5029 11.2916C45.5896 11.6202 45.7669 11.8481 46.0348 11.9754C46.3027 12.1027 46.6085 12.121 46.9522 12.0303Z" fill="#03009B"/>
<path d="M61.3228 4.68574L61.4486 11.0243L60.3589 11.046L60.31 8.57965L58.6756 8.61208L57.2307 11.108L56.059 11.1313L57.6002 8.46933C57.1911 8.32898 56.8742 8.10671 56.6493 7.80251C56.4283 7.49434 56.3137 7.13326 56.3055 6.71928C56.294 6.14127 56.5016 5.67221 56.9281 5.31212C57.3546 4.94812 57.931 4.75696 58.6573 4.73864L61.3228 4.68574ZM57.3954 6.70937C57.4015 7.01791 57.5119 7.26576 57.7266 7.45295C57.9412 7.63623 58.2223 7.72637 58.57 7.72338L60.2923 7.6892L60.2506 5.5861L58.6923 5.61702C58.29 5.625 57.9718 5.73095 57.7375 5.93485C57.5031 6.13486 57.3891 6.39303 57.3954 6.70937Z" fill="#03009B"/>
<path d="M79.0954 11.3682L76.4067 10.3952L76.7077 9.56319L79.3965 10.5362L79.0954 11.3682Z" fill="#03009B"/>
<path d="M97.5832 20.2438L95.9624 18.8665L92.4262 23.0279L91.6002 22.3259L95.1364 18.1646L93.5469 16.8138L94.116 16.1441L98.1523 19.5741L97.5832 20.2438Z" fill="#03009B"/>
<path d="M100.509 31.9358C100.572 31.8111 100.72 31.6377 100.954 31.4155C100.234 31.3226 99.6652 30.9954 99.2486 30.4339C98.8762 29.9319 98.7113 29.4146 98.754 28.882C98.8021 28.3503 99.0442 27.9226 99.4802 27.5991C100.01 27.2058 100.57 27.1017 101.16 27.2868C101.755 27.4728 102.324 27.9312 102.866 28.6622L103.495 29.5093L103.895 29.2125C104.199 28.9868 104.373 28.7166 104.417 28.402C104.464 28.085 104.356 27.7493 104.093 27.3948C103.862 27.0842 103.591 26.882 103.278 26.7882C102.965 26.6943 102.697 26.73 102.475 26.8953L101.825 26.02C102.079 25.8315 102.39 25.7393 102.758 25.7436C103.132 25.7487 103.502 25.8538 103.868 26.0588C104.236 26.267 104.558 26.5562 104.832 26.9264C105.267 27.5131 105.461 28.082 105.413 28.6334C105.368 29.1824 105.093 29.654 104.587 30.0482L102.244 31.7867C101.776 32.1335 101.449 32.4689 101.261 32.7929L101.186 32.8488L100.509 31.9358ZM100.1 29.9989C100.303 30.2718 100.566 30.4783 100.888 30.6183C101.211 30.7582 101.526 30.7993 101.833 30.7416L102.878 29.9666L102.372 29.2842C101.581 28.2176 100.873 27.9158 100.248 28.3789C99.9755 28.5814 99.8297 28.8306 99.8109 29.1266C99.7922 29.4226 99.8887 29.7134 100.1 29.9989Z" fill="#03009B"/>
<path d="M111.397 40.7865L110.549 38.8359L105.541 41.0131L105.109 40.019L110.117 37.8418L109.285 35.9288L110.091 35.5784L112.203 40.4361L111.397 40.7865Z" fill="#03009B"/>
<path d="M110.095 50.4711L115.041 51.0146L115.262 52.1535L107.592 51.0467C106.481 50.8605 105.844 50.3455 105.68 49.5019L105.659 49.2973L105.656 48.8859L106.519 48.7183L106.552 49.0104C106.622 49.3708 106.749 49.6366 106.934 49.8077C107.119 49.9826 107.418 50.0977 107.83 50.1528L108.509 50.2658L114.232 46.8502L114.458 48.0121L110.095 50.4711Z" fill="#03009B"/>
<path d="M115.71 63.6968L115.671 64.7801L109.335 64.5497L109.374 63.4664L113.994 63.6344L109.481 60.5445L109.52 59.4612L115.856 59.6916L115.816 60.7749L111.19 60.6067L115.71 63.6968Z" fill="#03009B"/>
<path d="M109.876 77.0069C108.947 76.7455 108.259 76.3224 107.811 75.7376C107.362 75.1529 107.24 74.4977 107.445 73.772C107.653 73.0312 108.052 72.5146 108.642 72.222L105.704 71.3947L105.997 70.3513L114.446 72.73L114.178 73.6832L113.487 73.5434C113.894 74.1165 113.991 74.7809 113.778 75.5367C113.571 76.2699 113.132 76.7712 112.46 77.0404C111.786 77.3135 110.957 77.3113 109.972 77.0339L109.876 77.0069ZM110.288 75.9969C110.976 76.1906 111.561 76.1969 112.042 76.0159C112.523 75.8348 112.836 75.4886 112.98 74.9772C113.157 74.3455 113.011 73.7929 112.539 73.3193L109.623 72.4983C108.979 72.6537 108.566 73.0529 108.385 73.6959C108.245 74.196 108.33 74.6483 108.643 75.0527C108.957 75.462 109.506 75.7767 110.288 75.9969Z" fill="#03009B"/>
<path d="M107.405 83.3824C107.946 83.687 108.374 84.0664 108.687 84.5208C108.999 84.9785 109.166 85.4624 109.188 85.9725C109.209 86.4859 109.082 86.9861 108.808 87.4729C108.385 88.2252 107.782 88.6864 107.001 88.8563C106.218 89.0296 105.394 88.873 104.529 88.3864L104.462 88.349C103.925 88.0464 103.5 87.6705 103.188 87.2215C102.877 86.7778 102.711 86.2966 102.689 85.7778C102.665 85.2624 102.793 84.7562 103.073 84.2592C103.494 83.5102 104.097 83.0491 104.88 82.8758C105.661 82.7059 106.481 82.8623 107.339 83.345L107.405 83.3824ZM106.758 84.269C106.146 83.9242 105.574 83.7887 105.044 83.8624C104.512 83.9396 104.112 84.2165 103.844 84.6931C103.574 85.1731 103.546 85.6597 103.762 86.153C103.981 86.6482 104.429 87.0864 105.106 87.4676C105.712 87.8085 106.284 87.9397 106.821 87.861C107.36 87.7877 107.764 87.5127 108.032 87.0361C108.294 86.5698 108.32 86.0892 108.11 85.5944C107.9 85.0997 107.449 84.6578 106.758 84.269Z" fill="#03009B"/>
<path d="M97.9967 91.9302L102.633 96.2546L100.946 98.0628C100.371 98.6798 99.8211 99.0513 99.2976 99.1773C98.7743 99.3088 98.3041 99.18 97.887 98.791C97.6728 98.5912 97.5385 98.3457 97.4842 98.0547C97.4327 97.7663 97.4785 97.4537 97.6215 97.1171C97.2947 97.3357 96.957 97.4401 96.6084 97.4301C96.2572 97.423 95.9487 97.2955 95.6831 97.0477C95.2575 96.6507 95.0784 96.1899 95.1458 95.6651C95.2106 95.1433 95.5094 94.5967 96.0423 94.0254L97.9967 91.9302ZM99.2925 94.6213L97.8957 93.3184L96.6727 94.6295C96.3636 94.9609 96.1946 95.2652 96.1655 95.5426C96.1338 95.8229 96.2294 96.0669 96.4522 96.2747C96.9149 96.7064 97.4634 96.5823 98.0975 95.9024L99.2925 94.6213ZM99.9266 95.2128L98.9714 96.2369C98.2787 96.9795 98.1494 97.5534 98.5836 97.9584C99.0178 98.3634 99.5697 98.2212 100.239 97.5318L101.251 96.4478L99.9266 95.2128Z" fill="#03009B"/>
<path d="M89.3804 103.224L90.0411 102.79L88.5561 100.533L89.4665 99.934L92.9519 105.23L92.0415 105.829L90.5662 103.587L89.9739 103.977L89.6677 107.391L88.5713 108.113L88.9911 104.189L84.9097 102.933L86.0599 102.176L89.3804 103.224Z" fill="#03009B"/>
<path d="M75.6889 106.992C75.7899 107.088 75.9128 107.281 76.0576 107.569C76.3554 106.907 76.8335 106.457 77.4918 106.221C78.0801 106.011 78.623 106.003 79.1203 106.198C79.6153 106.399 79.9544 106.754 80.1375 107.265C80.3601 107.887 80.2973 108.453 79.9491 108.964C79.5985 109.479 78.9948 109.89 78.138 110.197L77.1451 110.553L77.313 111.022C77.4408 111.379 77.6489 111.624 77.9373 111.757C78.227 111.894 78.5796 111.888 78.9951 111.739C79.3592 111.608 79.6315 111.407 79.812 111.135C79.9925 110.863 80.036 110.596 79.9425 110.335L80.9685 109.968C81.0752 110.266 81.0732 110.59 80.9623 110.941C80.8492 111.297 80.6414 111.62 80.3389 111.911C80.0328 112.203 79.6628 112.427 79.2289 112.583C78.5412 112.829 77.9405 112.849 77.4269 112.643C76.9146 112.441 76.5431 112.04 76.3123 111.443L75.3283 108.696C75.132 108.148 74.906 107.737 74.6504 107.463L74.6188 107.375L75.6889 106.992ZM77.661 107.163C77.341 107.278 77.0673 107.469 76.8397 107.737C76.6121 108.005 76.4814 108.295 76.4476 108.606L76.8862 109.83L77.6861 109.544C78.9364 109.096 79.4305 108.506 79.1683 107.774C79.0537 107.454 78.8575 107.243 78.5797 107.139C78.3018 107.035 77.9956 107.043 77.661 107.163Z" fill="#03009B"/>
<path d="M66.2969 112.314L69.1261 111.899L69.2544 112.775L66.4253 113.189L66.2969 112.314Z" fill="#03009B"/>
</svg>
